<svg width="810" height="614" viewBox="0 0 810 614" fill="none" xmlns="http://www.w3.org/2000/svg">
<path d="M330.804 366.717V440.339C340.507 430.986 346.809 418.433 346.809 401.578C346.809 390.874 344.208 378.22 330.804 366.717Z" fill="white"/>
<path d="M646.047 421.833C748.777 400.977 782.787 326.055 782.787 251.883C782.787 158.405 715.567 73.3799 588.079 72.6299C539.315 72.6299 490.55 72.3799 441.786 72.1299C448.488 81.1829 454.39 90.9349 459.491 101.338L465.943 114.542L359.261 169.458L352.009 157.405C347.408 149.753 340.155 141.95 330.803 134.848V229.526C370.965 239.979 406.626 255.784 432.783 281.191V167.657H588.079C652.198 167.657 680.807 210.92 680.807 254.183C680.807 297.446 652.999 340.709 588.079 340.709H469.344C474.946 358.364 477.996 378.52 477.996 401.577C477.996 412.33 477.196 422.733 475.645 432.686H530.911L688.507 613.439H809.793V606.537L646.047 421.833Z" fill="white"/>
<path d="M330.804 613.44H432.784V520.613C407.927 546.821 373.366 566.176 330.804 577.48V613.44Z" fill="white"/>
<path d="M364.887 149.679C346.341 118.774 295.35 89.415 236.631 89.415C160.91 89.415 124.596 121.092 124.596 161.265C124.596 208.398 180.228 221.532 245.13 229.259C357.932 243.164 463.007 272.524 463.007 401.556C463.007 522.085 356.389 573.853 235.855 573.853C125.373 573.853 40.3821 539.854 0.204102 440.957L85.1951 396.921C109.147 456.411 171.729 482.679 237.403 482.679C301.528 482.679 361.795 460.275 361.795 401.556C361.795 350.56 308.483 329.699 236.631 321.972C126.144 308.838 24.1561 279.479 24.1561 158.179C24.1561 46.921 133.871 1.33601 233.539 0.562012C317.753 0.562012 405.059 24.514 446.009 107.959L364.887 149.679Z" fill="#2BAAFF"/>
</svg>
