<svg version="1.0" xmlns="http://www.w3.org/2000/svg"
 width="512.000000pt" height="512.000000pt" viewBox="0 0 512.000000 512.000000"
 preserveAspectRatio="xMidYMid meet">

<g transform="translate(0.000000,512.000000) scale(0.100000,-0.100000)"
fill="#000000" stroke="none">
<path d="M1469 3550 c-144 -17 -269 -61 -375 -132 -152 -102 -234 -256 -234
-438 1 -138 39 -235 126 -322 103 -102 232 -155 590 -243 275 -67 343 -109
352 -217 3 -44 0 -59 -20 -88 -56 -83 -148 -114 -333 -115 -193 0 -363 46
-528 141 -44 25 -81 44 -83 42 -2 -3 -23 -49 -48 -104 -24 -54 -55 -125 -70
-156 l-26 -58 38 -24 c111 -70 269 -129 437 -163 126 -25 427 -25 538 -1 232
52 389 163 474 336 l38 76 0 140 c0 131 -2 145 -26 196 -55 116 -170 209 -335
269 -43 16 -182 54 -309 86 -244 60 -329 94 -366 147 -64 89 -11 213 109 258
166 62 424 37 635 -62 72 -34 90 -39 97 -28 5 8 35 79 67 158 l58 144 -23 18
c-12 10 -54 32 -94 48 -198 83 -464 118 -689 92z"/>
<path d="M2650 2605 l0 -925 215 0 215 0 0 255 0 255 198 0 197 0 175 -255
175 -255 227 0 c126 0 228 2 228 5 0 2 -88 131 -195 285 -108 154 -198 286
-200 293 -3 7 19 25 52 42 88 45 202 164 247 255 90 185 89 419 -4 606 -74
150 -239 275 -425 323 -131 33 -266 41 -696 41 l-409 0 0 -925z m890 564 c124
-20 209 -78 251 -172 33 -74 34 -201 1 -272 -31 -68 -82 -118 -156 -152 -61
-28 -61 -28 -308 -31 l-248 -4 0 321 0 321 198 0 c108 0 226 -5 262 -11z"/>
</g>
</svg>
